<?xml version="1.0" encoding="iso-8859-1"?>
<!-- Uploaded to: SVG Repo, www.svgrepo.com, Generator: SVG Repo Mixer Tools -->
<svg fill="#000000" height="800px" width="800px" version="1.1" id="Layer_1" xmlns="http://www.w3.org/2000/svg" xmlns:xlink="http://www.w3.org/1999/xlink" 
	 viewBox="0 0 512 512" xml:space="preserve">
<g>
	<g>
		<g>
			<path d="M217.634,163.26c19.985-12.672,54.562-12.757,76.757,0.008c14.652,10.146,34.466,10.01,51.089,0.077l8.081-5.385
				l-26.095-58.709c-3.601-8.098-11.477-13.397-20.267-13.833V68.267h3.806c7.313,0,13.261-5.948,13.261-13.261V13.252
				C324.267,5.948,318.319,0,311.006,0h-12.339v25.6c0,4.71-3.823,8.533-8.533,8.533c-4.71,0-8.533-3.823-8.533-8.533V0h-17.067
				v25.6c0,4.71-3.823,8.533-8.533,8.533c-4.71,0-8.533-3.823-8.533-8.533V0H230.4v25.6c0,4.71-3.823,8.533-8.533,8.533
				c-4.71,0-8.533-3.823-8.533-8.533V0h-12.339c-7.313,0-13.261,5.948-13.261,13.252v41.754c0,7.313,5.948,13.261,13.261,13.261
				h3.806v17.152c-8.789,0.435-16.666,5.734-20.267,13.833l-26.086,58.701l8.422,5.615
				C180.89,173.303,200.294,173.15,217.634,163.26z"/>
			<path d="M354.603,177.766c-11.315,6.775-23.714,10.146-35.721,10.146c-12.1,0-23.808-3.422-33.621-10.24
				c-18.091-10.377-45.235-8.405-58.829,0.205c-23.441,13.397-49.809,13.244-69.171-0.205l-3.661-2.441v46.635v17.067v38.664
				c0,8.243,3.405,15.693,8.858,21.069c-5.453,5.367-8.858,12.826-8.858,21.06v26.138c0,8.243,3.405,15.693,8.858,21.069
				c-5.453,5.367-8.858,12.826-8.858,21.069v26.129c0,8.243,3.405,15.693,8.858,21.069c-5.453,5.367-8.858,12.826-8.858,21.06
				v26.138c0,16.324,13.278,29.602,29.602,29.602h145.596c16.324,0,29.602-13.278,29.602-29.602V456.26
				c0-8.235-3.405-15.693-8.858-21.06c5.453-5.376,8.858-12.826,8.858-21.069v-26.129c0-8.243-3.405-15.701-8.858-21.069
				c5.453-5.376,8.858-12.826,8.858-21.069v-26.138c0-8.235-3.405-15.693-8.858-21.06c5.453-5.376,8.858-12.826,8.858-21.069
				v-38.664v-17.067v-46.635L354.603,177.766z M341.333,414.131c0,6.912-5.623,12.535-12.535,12.535H183.202
				c-6.912,0-12.535-5.623-12.535-12.535v-26.129c0-6.921,5.623-12.536,12.535-12.536h145.596c6.912,0,12.535,5.615,12.535,12.536
				V414.131z M341.333,277.598c0,6.912-5.623,12.536-12.535,12.536H183.202c-6.912,0-12.535-5.623-12.535-12.536v-38.664h170.667
				V277.598z"/>
		</g>
	</g>
</g>
</svg>