<?xml version="1.0" encoding="UTF-8"?>
<!DOCTYPE svg PUBLIC "-//W3C//DTD SVG 1.1//EN" "http://www.w3.org/Graphics/SVG/1.1/DTD/svg11.dtd">
<svg xmlns="http://www.w3.org/2000/svg" version="1.1" width="100px" height="100px" style="shape-rendering:geometricPrecision; text-rendering:geometricPrecision; image-rendering:optimizeQuality; fill-rule:evenodd; clip-rule:evenodd" xmlns:xlink="http://www.w3.org/1999/xlink">
<g><path style="opacity:0.979" fill="#000000" d="M 12.5,7.5 C 37.1689,7.33336 61.8356,7.50003 86.5,8C 88.3333,9.16667 89.8333,10.6667 91,12.5C 91.6667,37.1667 91.6667,61.8333 91,86.5C 89.8333,88.3333 88.3333,89.8333 86.5,91C 61.8333,91.6667 37.1667,91.6667 12.5,91C 10.6667,89.8333 9.16667,88.3333 8,86.5C 7.33333,61.8333 7.33333,37.1667 8,12.5C 9.36569,10.6383 10.8657,8.97167 12.5,7.5 Z M 40.5,22.5 C 42.8333,22.5 45.1667,22.5 47.5,22.5C 47.5,24.8333 47.5,27.1667 47.5,29.5C 49.1667,29.5 50.8333,29.5 52.5,29.5C 52.5,27.1667 52.5,24.8333 52.5,22.5C 56.687,22.3947 60.687,23.228 64.5,25C 61.0191,29.4283 62.0191,31.9283 67.5,32.5C 67.3832,30.5165 68.0499,28.8498 69.5,27.5C 72.563,29.0252 75.2297,31.0252 77.5,33.5C 74.6908,37.4767 71.6908,41.31 68.5,45C 63.1771,45.4994 57.8437,45.666 52.5,45.5C 53.6695,40.1724 54.5028,34.8391 55,29.5C 51.1667,34.5 47.3333,39.5 43.5,44.5C 39.2047,45.6609 34.8713,45.8275 30.5,45C 27.3092,41.31 24.3092,37.4767 21.5,33.5C 23.7703,31.0252 26.437,29.0252 29.5,27.5C 30.9501,28.8498 31.6168,30.5165 31.5,32.5C 36.9809,31.9283 37.9809,29.4283 34.5,25C 36.7226,24.4338 38.7226,23.6005 40.5,22.5 Z"/></g>
</svg>
